<svg width="1615" height="1459" viewBox="0 0 1615 1459" fill="none" xmlns="http://www.w3.org/2000/svg">
<path d="M667.537 1250.8C956.067 1328.11 1252.64 1156.89 1329.95 868.358C1407.26 579.828 1236.04 283.255 947.506 205.943C658.976 128.632 362.403 299.858 285.092 588.388C207.78 876.918 379.007 1173.49 667.537 1250.8Z" fill="url(#paint0_radial_1868_207)"/>
<path d="M667.537 1250.8C956.067 1328.11 1252.64 1156.89 1329.95 868.358C1407.26 579.828 1236.04 283.255 947.506 205.943C658.976 128.632 362.403 299.858 285.092 588.388C207.78 876.918 379.007 1173.49 667.537 1250.8Z" fill="#081E3D"/>
<path d="M667.537 1250.8C956.067 1328.11 1252.64 1156.89 1329.95 868.358C1407.26 579.828 1236.04 283.255 947.506 205.943C658.976 128.632 362.403 299.858 285.092 588.388C207.78 876.918 379.007 1173.49 667.537 1250.8Z" fill="url(#paint1_radial_1868_207)" fill-opacity="0.34"/>
<path d="M521.038 3.41048C533.776 6.85759 542.276 11.456 552.042 16.7834C569.949 26.5594 587.357 37.2005 604.891 47.6218C614.947 53.5944 624.782 59.9103 634.824 65.8967C655.506 78.2265 676.313 90.3368 696.967 102.708C710.172 110.616 723.1 118.978 736.305 126.901C750.592 135.454 765.116 143.638 779.431 152.137C806.549 168.229 832.626 185.488 854.598 208.541C863.933 218.331 871.784 228.875 877.763 240.519C881.73 248.249 883.561 257.572 884.199 266.332C885.225 280.515 885.115 294.863 884.282 309.074C883.7 319.097 881.078 329.011 879.469 338.979C879.067 341.45 879.261 344.004 878.914 346.489C877.305 357.844 875.543 369.185 873.962 380.554C873.546 383.492 873.768 386.513 873.352 389.438C871.757 400.793 869.967 412.134 868.372 423.489C867.956 426.413 868.206 429.434 867.803 432.372C866.236 443.974 864.488 455.563 862.921 467.165C862.518 470.103 862.671 473.11 862.269 476.048C860.66 487.843 858.87 499.61 857.317 511.404C856.845 515.015 857.192 518.736 856.693 522.347C855.194 533.235 853.419 544.096 851.865 554.984C851.449 557.908 851.588 560.929 851.172 563.854C849.563 575.181 847.787 586.495 846.192 597.822C845.804 600.527 846.012 603.314 845.637 606.033C843.973 618.047 842.433 630.089 840.38 642.048C838.771 651.425 837.328 660.995 834.207 669.934C831.184 678.584 826.842 687.001 821.737 694.648C815.44 704.095 808.768 713.706 800.418 721.285C790.403 730.375 778.668 737.679 767.321 745.245C756.613 752.384 745.613 759.126 734.46 765.565C720.423 773.666 706.025 781.177 691.918 789.181C685.426 792.861 679.406 797.365 672.942 801.099C657.254 810.175 641.33 818.853 625.697 827.997C608.192 838.24 591.047 849.073 573.472 859.206C553.026 870.987 532.234 882.149 511.732 893.834C497.403 902.003 483.477 910.887 469.065 918.905C457.552 925.317 446.039 932.251 433.666 936.508C415.883 942.618 396.893 945.295 378.237 942.014C365.156 939.707 352.187 935.464 340.507 928.269C326.83 919.839 312.724 912.095 298.908 903.898C288.699 897.843 278.684 891.486 268.516 885.362C251.538 875.133 234.518 864.959 217.498 854.799C206.263 848.098 194.916 841.563 183.722 834.78C161.861 821.516 140.32 807.704 118.209 794.879C90.7306 778.939 63.6403 762.929 40.1149 741.002C27.728 729.455 16.9502 717.317 9.1269 702.818C5.21525 695.568 4.20262 686.699 2.33002 678.46C1.17872 673.394 0.693256 668.149 0.263252 662.959C-0.0557829 659.101 -0.0974382 655.187 0.207726 651.343C0.665473 645.466 1.44221 639.604 2.24673 633.754C3.88352 621.905 5.7007 610.097 7.29588 598.248C7.72588 595.09 7.40685 591.822 7.85073 588.664C9.37655 577.735 11.1243 566.847 12.6778 555.931C13.094 552.993 12.9553 549.986 13.3575 547.048C14.9943 535.24 16.8392 523.459 18.4205 511.651C18.906 508.04 18.4622 504.305 18.9615 500.694C20.4596 489.765 22.2629 478.863 23.8164 467.947C24.2326 465.023 24.0244 462.002 24.4266 459.064C26.0495 447.242 27.839 435.448 29.4619 423.64C29.8364 420.935 29.6006 418.148 29.989 415.429C31.6119 403.841 33.4291 392.266 35.0242 380.664C35.4542 377.506 35.1491 374.238 35.5791 371.08C37.1604 359.464 39.0331 347.89 40.5311 336.274C41.086 331.99 40.5589 327.541 41.1969 323.271C42.5563 314.182 44.1237 305.092 46.038 296.099C47.758 288.067 49.3947 279.883 52.3077 272.249C55.8032 263.078 59.5623 253.672 65.1385 245.695C73.045 234.395 81.742 223.273 91.9095 214.019C101.98 204.861 114.048 197.749 125.686 190.431C136.103 183.881 147.158 178.293 157.894 172.238C176.773 161.583 195.707 151.025 214.475 140.164C225.544 133.766 236.169 126.612 247.252 120.255C264.716 110.246 282.485 100.758 299.976 90.8035C312.793 83.5127 325.319 75.7002 338.08 68.327C356.986 57.3977 376.017 46.6744 394.952 35.7863C404.675 30.198 414.399 24.596 423.97 18.7332C439.256 9.36911 455.749 3.39647 473.434 0.444458C474.627 0.252234 503.069 -1.45229 521.038 3.41048Z" fill="url(#paint2_linear_1868_207)"/>
<path d="M394.364 916.971C372.678 928.734 333.575 924.299 333.575 924.299C333.575 924.299 387.147 967.089 446.604 932.497C636.824 821.826 637.435 829.631 782.454 736.767C831.508 705.355 841.921 661.969 851.856 588.189C865.667 485.623 874.596 398.695 887.693 280.771C892.853 234.316 831.178 186.496 831.178 186.496C831.178 186.496 863.443 251.299 858.748 287.602C842.483 413.347 832.558 472.053 814.279 603.729C806.587 659.147 785.098 693.371 734.136 722.926C583.574 810.246 547.667 833.809 394.364 916.971Z" fill="url(#paint3_linear_1868_207)"/>
<path d="M1062.09 331.295C1062.55 328.466 1063.73 325.557 1063.36 322.823C1061.58 309.926 1065.29 297.911 1068.28 285.54C1073.44 264.294 1088.27 249.173 1102.14 233.141C1116.21 216.873 1129.64 200.123 1143.44 183.653C1152.62 172.702 1162.12 161.959 1171.22 150.953C1187.41 131.353 1203.04 111.325 1219.64 92.0399C1228.4 81.8518 1239.32 74.1413 1254.25 72.8167C1267.52 71.6413 1280.78 69.9547 1293.84 67.5848C1306.56 65.2719 1317.05 70.205 1327.2 75.6273C1338.57 81.7053 1349.15 89.1067 1360.18 95.7548C1374.04 104.123 1387.97 112.405 1401.97 120.571C1415.35 128.372 1428.98 135.799 1442.25 143.759C1455.68 151.829 1468.72 160.473 1482.11 168.615C1492.2 174.741 1502.65 180.347 1512.81 186.385C1523.07 192.476 1530.85 200.658 1538.29 209.83C1547.53 221.224 1556.85 240.964 1562.35 266.627C1568.21 293.895 1571.44 313.374 1575.6 336.803C1581.85 371.985 1587.61 407.259 1593.9 442.435C1597.14 460.511 1601.17 478.471 1604.75 496.502C1607.83 511.972 1611.52 527.391 1613.52 543.001C1614.72 552.375 1615.46 559.252 1614.67 569.6C1613.57 584.082 1610.07 594.885 1605.71 605.608C1602.03 614.628 1595.7 622.874 1589.52 630.759C1578.24 645.211 1566.37 659.266 1554.47 673.284C1531.46 700.394 1508.23 727.336 1485.17 754.399C1475.31 765.963 1466.03 777.99 1455.76 789.213C1447.29 798.47 1436.83 805.308 1423.4 806.99C1411.1 808.527 1398.69 809.592 1386.55 811.908C1373.25 814.453 1361.78 810.618 1350.89 804.504C1331.11 793.395 1311.54 781.944 1291.97 770.533C1270.11 757.803 1248.25 745.059 1226.56 732.111C1213.04 724.039 1199.65 715.755 1186.45 707.221C1173.01 698.536 1159.03 690.34 1146.95 680.166C1139.37 673.794 1134.43 664.419 1129.08 655.948C1116.54 636.094 1114.66 613.499 1110.87 591.36C1106.49 565.78 1101.61 540.265 1096.92 514.725C1092.62 491.326 1088.27 467.934 1083.98 444.535C1078.98 417.289 1074.05 390.034 1068.95 362.815C1068.57 360.778 1066.92 358.956 1065.87 357.03C1064.59 348.467 1063.34 339.887 1062.09 331.295Z" fill="url(#paint4_linear_1868_207)"/>
<path d="M1217.65 90.7147C1239.83 65.6653 1262.83 71.6174 1296.98 67.2065C1296.98 67.2065 1264.14 73.7712 1241.02 101.089C1189.8 161.625 1168.32 191.313 1120.43 244.611C1099.32 268.107 1098.31 293.273 1102.44 321.531C1118.94 434.485 1123.67 494.156 1156.96 608.948C1165.37 637.962 1171.42 661.708 1199.26 679.389C1272.9 726.152 1297.37 747.393 1362.2 789.213C1379.11 800.117 1433.07 804.662 1433.07 804.662C1433.07 804.662 1380.23 819.972 1360.21 809.101C1286.37 768.993 1243.07 740.367 1170.09 698.861C1138.22 680.73 1118.63 649.196 1111.88 614.771C1090.09 503.728 1077.95 439.729 1061.46 326.825C1057.15 297.281 1061.91 274.153 1082.18 249.552C1140.11 179.252 1162.69 152.775 1217.65 90.7147Z" fill="url(#paint5_linear_1868_207)"/>
<path d="M612.745 1030.04C592.646 1053.78 592.843 1096.47 592.843 1096.47C592.843 1096.47 597.779 1070.48 607.556 1055.4C614.334 1044.94 623.58 1038.78 634.832 1032.23C747.125 966.832 888.416 892.866 938.485 865.828C976.036 845.55 1007.75 853.993 1037.62 868.144C1101.62 898.461 1158.43 912.443 1228.79 949.182C1250.65 960.595 1265.24 994.984 1265.24 994.984C1265.24 994.984 1262.84 938.875 1218.36 916.293C1126.89 869.849 1114.69 864.022 1044.84 830.655L1043.12 829.836C1008.94 813.509 977.64 803.587 943.118 821.663C804.999 893.98 774.062 914.614 662.361 990.536C647.958 1000.33 628.044 1011.96 612.745 1030.04Z" fill="url(#paint6_linear_1868_207)"/>
<path d="M635.561 1030.93C758.304 958.735 808.252 931.952 939.733 864.128C988.175 839.14 1030.31 861.708 1078.66 881.106C1130.35 901.847 1156.51 914.294 1219.9 944.086C1275.8 970.36 1274.12 1011.11 1250.33 1045.94C1174.92 1156.39 1118.25 1238.08 1044.79 1343.88C1022.96 1375.32 954.659 1400.16 954.659 1400.16L829.468 1448.33C794.232 1465.66 765.89 1456.67 765.89 1456.67C721.194 1446.66 605.696 1360.28 605.696 1360.28C605.696 1360.28 582.929 1345.89 584.039 1314.67C587.425 1219.5 591.241 1231.71 592.466 1112.91C592.807 1079.82 597.401 1053.38 635.561 1030.93Z" fill="url(#paint7_linear_1868_207)"/>
<defs>
<radialGradient id="paint0_radial_1868_207" cx="0" cy="0" r="1" gradientUnits="userSpaceOnUse" gradientTransform="translate(1103.91 475.952) rotate(137.198) scale(322.736 327.697)">
<stop stop-color="white" stop-opacity="0.81"/>
<stop offset="1" stop-color="white" stop-opacity="0"/>
</radialGradient>
<radialGradient id="paint1_radial_1868_207" cx="0" cy="0" r="1" gradientUnits="userSpaceOnUse" gradientTransform="translate(999.93 652.988) rotate(149.996) scale(351.018 340.255)">
<stop stop-color="white" stop-opacity="0.85"/>
<stop offset="1" stop-color="#F4F5FF" stop-opacity="0"/>
</radialGradient>
<linearGradient id="paint2_linear_1868_207" x1="359.548" y1="64.8452" x2="442.189" y2="948.23" gradientUnits="userSpaceOnUse">
<stop stop-color="#FEE662"/>
<stop offset="1" stop-color="#FFB148"/>
</linearGradient>
<linearGradient id="paint3_linear_1868_207" x1="466.366" y1="3.20603" x2="466.366" y2="949.405" gradientUnits="userSpaceOnUse">
<stop stop-color="#D67022"/>
<stop offset="1" stop-color="#E57F29"/>
</linearGradient>
<linearGradient id="paint4_linear_1868_207" x1="1546.25" y1="414.1" x2="1060.57" y2="448.12" gradientUnits="userSpaceOnUse">
<stop stop-color="#FEB046"/>
<stop offset="1" stop-color="#FFC752"/>
</linearGradient>
<linearGradient id="paint5_linear_1868_207" x1="1326.18" y1="67.6212" x2="1326.18" y2="806.565" gradientUnits="userSpaceOnUse">
<stop stop-color="#DC8026"/>
<stop offset="0.515625" stop-color="#FDB84A"/>
<stop offset="1" stop-color="#E8872E"/>
</linearGradient>
<linearGradient id="paint6_linear_1868_207" x1="624.224" y1="1348.73" x2="1232.95" y2="1349.27" gradientUnits="userSpaceOnUse">
<stop stop-color="#DE8228"/>
<stop offset="0.505208" stop-color="#FAB557"/>
<stop offset="1" stop-color="#EA8B31"/>
</linearGradient>
<linearGradient id="paint7_linear_1868_207" x1="946.323" y1="1386.51" x2="885.277" y2="879.728" gradientUnits="userSpaceOnUse">
<stop stop-color="#F09A1D"/>
<stop offset="1" stop-color="#FFC250"/>
</linearGradient>
</defs>
</svg>
